<?xml version="1.0" encoding="UTF-8"?>
<svg version="1.1" xmlns="http://www.w3.org/2000/svg" width="5391" height="5119">
  <path
    d="M0 0 C6.09454166 0.00543118 12.1890741 -0.00092172 18.28361478 -0.0056737 C28.97907008 -0.01242481 39.67450242 -0.01188779 50.36995648 -0.00630661 C61.89234698 -0.00033444 73.41472582 0.00116473 84.9371174 -0.00255503 C85.67098718 -0.00278921 86.40485695 -0.00302339 87.16096521 -0.00326467 C90.90880592 -0.00447988 94.65664661 -0.0057643 98.4044873 -0.00707189 C125.69920436 -0.01644301 152.99391442 -0.01599403 180.28863215 -0.01051014 C207.93864092 -0.00498484 235.58864483 -0.00383473 263.23865389 -0.00798481 C264.11196686 -0.00811383 264.98527984 -0.00824286 265.88505684 -0.0083758 C273.88889677 -0.00955894 281.8927367 -0.01078676 289.89657662 -0.01206822 C309.9639273 -0.01527592 330.03127804 -0.01778819 350.09862887 -0.01982896 C351.47772408 -0.01996967 351.47772408 -0.01996967 352.88467979 -0.02011321 C398.16903804 -0.02466712 443.45339543 -0.02160004 488.73775363 -0.01777332 C490.72063574 -0.01760605 492.70351786 -0.01743878 494.68639998 -0.01727153 C495.66912834 -0.01718862 496.65185669 -0.01710571 497.6643647 -0.01702028 C510.62461193 -0.0159272 523.58485917 -0.01485397 536.54510641 -0.01383369 C537.53582752 -0.01375537 538.52654863 -0.01367705 539.54729159 -0.01359635 C585.48481344 -0.00999181 631.42233485 -0.01085156 677.35985676 -0.0126946 C682.37325278 -0.0128942 687.3866488 -0.01308519 692.40004482 -0.01327715 C707.51150941 -0.01385835 722.622974 -0.01445223 737.73443859 -0.01507235 C783.81414765 -0.0169613 829.89385672 -0.01816186 875.97356581 -0.01876896 C876.99951484 -0.01878269 878.02546388 -0.01879643 879.08250227 -0.01881058 C945.51291791 -0.0196879 1011.94333305 -0.01748736 1078.37374854 -0.0130698 C1079.43405116 -0.01299956 1080.49435379 -0.01292932 1081.58678679 -0.01285696 C1117.10034655 -0.01050434 1152.6139063 -0.00799217 1188.12746604 -0.0054637 C1295.51525166 0.00217684 1402.90303553 0.00636451 1594.68353834 -0.00569436 C1630.18695944 -0.00822084 1665.69038053 -0.0107179 1701.19380164 -0.0130698 C1702.7837572 -0.01317553 1702.7837572 -0.01317553 1704.40583308 -0.0132834 C1770.80093371 -0.01769498 1837.196034 -0.01965794 1903.59113478 -0.01876896 C1905.12955396 -0.01874869 1905.12955396 -0.01874869 1906.69905231 -0.01872801 C1952.75392145 -0.01811453 1998.80879055 -0.01683784 2044.86365965 -0.01494795 C2059.96870053 -0.01432887 2075.07374142 -0.0137402 2090.1787823 -0.01316185 C2095.18938241 -0.01296987 2100.19998252 -0.01277516 2105.21058262 -0.01257413 C2151.14774258 -0.01073676 2197.08490194 -0.01020196 2243.02206182 -0.01383369 C2244.01211408 -0.01391163 2245.00216634 -0.01398958 2246.02222019 -0.01406988 C2258.97449657 -0.01509342 2271.92677295 -0.01617871 2284.87904933 -0.01727153 C2285.86095776 -0.01735435 2286.84286618 -0.01743718 2287.85452941 -0.01752252 C2289.83552128 -0.01768964 2291.81651315 -0.0178569 2293.79750502 -0.01802431 C2339.02018425 -0.02183603 2384.24286245 -0.02444263 2429.46554172 -0.01982896 C2430.84288539 -0.0196889 2430.84288539 -0.0196889 2432.24805418 -0.01954601 C2452.28413385 -0.01748537 2472.3202134 -0.01484605 2492.35629292 -0.0116384 C2500.3480082 -0.01036668 2508.33972348 -0.00916546 2516.33143878 -0.00798481 C2517.6390453 -0.00778856 2517.6390453 -0.00778856 2518.97306811 -0.00758835 C2546.58519569 -0.00347693 2574.19731824 -0.00547013 2601.80944545 -0.01101835 C2629.01681881 -0.01645799 2656.22418429 -0.01577238 2683.43155677 -0.00628162 C2687.16626788 -0.00497952 2690.90097901 -0.0037466 2694.63569016 -0.00255503 C2695.3667703 -0.00231906 2696.09785045 -0.00208308 2696.85108454 -0.00183995 C2708.33119909 0.00168544 2719.8113015 -0.00140554 2731.29141462 -0.00739774 C2742.55161972 -0.01313689 2753.81180548 -0.0115004 2765.07201028 -0.00272413 C2771.05483929 0.00173813 2777.03762322 0.00320679 2783.02045015 -0.00435716 C2813.99392764 -0.04081506 2844.79533551 0.41643162 2875.60074687 4.00481732 C2876.32335703 4.08751873 2877.0459672 4.17022015 2877.79047465 4.25542767 C2962.49684111 14.0122414 3043.86714755 38.76616641 3158.17496562 97.63909466 C3160.81663595 99.23422005 3163.47158748 100.80446377 3166.13199687 102.36809857 C3197.7765418 121.02795508 3227.8655219 142.77407992 3255.78043437 166.65325482 C3258.52808732 168.99739433 3261.33874915 171.25365048 3264.16324687 173.50481732 C3271.07145236 179.12590446 3277.45386589 185.30543306 3283.9122703 191.42962201 C3286.18306469 193.56771505 3288.48352437 195.67099569 3290.79019999 197.77019818 C3296.40126751 202.88353803 3301.84753804 208.14709336 3307.22574687 213.50481732 C3307.87994609 214.15442425 3308.5341453 214.80403119 3309.20816874 215.47332318 C3313.0093086 219.28657167 3316.61335477 223.21550644 3320.13150859 227.29046185 C3322.90948909 230.46450774 3325.82467855 233.50623218 3328.72574687 236.56731732 C3333.57976644 241.72931518 3338.22286431 246.98130138 3342.64762187 252.52044232 C3344.68355532 255.04731008 3346.76767361 257.51949559 3348.8785789 259.98333294 C3354.78806343 266.88557813 3360.4039784 273.98230577 3365.85074687 281.25481732 C3366.35944316 281.93221966 3366.86813944 282.60962201 3367.39225077 283.30755169 C3380.95439396 301.4120201 3394.13865674 319.77885058 3405.66422343 339.25823529 C3406.77176746 341.1219174 3407.89648735 342.97352047 3409.03043437 344.82122357 C3450.81070572 413.08181366 3480.7009118 488.68836288 3511.9772467 707.97272868 C3511.97836649 710.00555321 3511.97992362 712.03837753 3511.9818726 714.07120143 C3511.98595168 719.63641153 3511.98386152 725.20160443 3511.98072673 730.7668145 C3511.97841404 736.8518359 3511.98193611 742.9368545 3511.98469355 749.02187533 C3511.98874063 759.72078227 3511.98910887 770.41968372 3511.98698761 781.11859074 C3511.98472009 792.65420632 3511.9846603 804.18981887 3511.98722032 815.72543442 C3511.98738151 816.45809997 3511.98754271 817.19076553 3511.98770879 817.94563307 C3511.98854135 821.68684123 3511.9894082 825.42804938 3511.99028632 829.16925752 C3511.99661646 856.4680573 3511.99799962 883.76685562 3511.99686885 911.06565602 C3511.99573644 938.73241221 3511.99677019 966.39916706 3512.00044131 994.06592305 C3512.0006733 995.83072059 3512.00090527 997.59551813 3512.00113723 999.36031567 C3512.00207678 1006.47615496 3512.00303308 1013.59199425 3512.00400842 1020.70783353 C3512.00675365 1040.76597642 3512.0091331 1060.82411934 3512.01126039 1080.8822623 C3512.01135794 1081.80138685 3512.01145549 1082.72051139 3512.01155599 1083.66748819 C3512.01706036 1135.93155459 3512.01736557 1188.19562107 3512.01777685 1240.45968771 C3512.0178401 1248.44862002 3512.01790662 1256.43755234 3512.0179774 1264.42648465 C3512.0179951 1266.42888284 3512.01801247 1268.43128102 3512.01802953 1270.4336792 C3512.01841738 1315.38127939 3512.02059621 1360.32887943 3512.02315978 1405.27647954 C3512.02373134 1415.30926653 3512.02428532 1425.34205352 3512.02484041 1435.3748405 C3512.0249231 1436.86868467 3512.0249231 1436.86868467 3512.02500745 1438.39270752 C3512.02534195 1444.43801955 3512.02567572 1450.48333157 3512.02600901 1456.5286436 C3512.02617609 1459.55704961 3512.0263436 1462.58545563 3512.02651115 1465.61386164 C3512.02911301 1512.70002824 3512.03134332 1559.78619486 3512.03319335 1606.87236149 C3512.03323372 1607.8982986 3512.03327409 1608.92423571 3512.03331568 1609.98126183 C3512.03587873 1675.35595215 3512.03677819 1740.73064238 3512.03651535 1806.10533275 C3512.03650259 1809.31988415 3512.03649063 1812.53443554 3512.03647894 1815.74898694 C3512.0363966 1838.33223777 3512.03629389 1860.91548861 3512.03618606 1883.49873944 C3512.03615529 1889.9737694 3512.03612522 1896.44879936 3512.03609524 1902.92382932 C3512.03607015 1908.32484822 3512.03604436 1913.72586712 3512.03601713 1919.12688602 C3512.03550575 2021.13024388 3512.03692254 2123.13360095 3512.04636454 2225.13695843 C3512.04651358 2226.74761833 3512.04651358 2226.74761833 3512.04666563 2228.39081682 C3512.04977697 2261.94053575 3512.05314347 2295.49025466 3512.05655741 2329.03997357 C3512.0600589 2363.46513747 3512.06352939 2397.89030136 3512.06682181 2432.31546528 C3512.06692334 2433.3754687 3512.06702486 2434.43547211 3512.06712946 2435.52759685 C3512.07347985 2501.92578762 3512.07740073 2568.32397817 3512.0786798 2634.72216923 C3512.07870984 2636.26070538 3512.07870984 2636.26070538 3512.07874049 2637.83032306 C3512.07961586 2682.87873406 3512.07993556 2727.92714504 3512.0796496 2772.97555604 C3512.07953532 2791.09924007 3512.07947925 2809.22292409 3512.07944628 2827.34660811 C3512.07943988 2830.35154371 3512.0794308 2833.35647932 3512.07942113 2836.36141492 C3512.07928469 2882.30759397 3512.08062758 2928.25377229 3512.08646631 2974.199951 C3512.08659198 2975.19027723 3512.08671765 2976.18060345 3512.08684713 2977.20093957 C3512.08887606 2993.13074053 3512.09102011 3009.06054148 3512.09317394 3024.99034244 C3512.09928548 3070.22851124 3512.10432524 3115.46667908 3512.10220277 3160.70484836 C3512.1021387 3162.08269912 3512.1021387 3162.08269912 3512.10207334 3163.48838524 C3512.10111981 3183.53208058 3512.0996038 3203.57577583 3512.09753662 3223.61947108 C3512.09672034 3231.61434629 3512.0959767 3239.6092215 3512.09525561 3247.60409672 C3512.09513463 3248.91222557 3512.09513463 3248.91222557 3512.09501121 3250.24678126 C3512.09249083 3277.87018475 3512.09609699 3305.49358285 3512.10327343 3333.1169854 C3512.11031867 3360.33586666 3512.11124947 3387.55474041 3512.10338649 3414.77362168 C3512.102308 3418.5099457 3512.10129909 3422.24626973 3512.10033194 3425.98259377 C3512.10013992 3426.71399102 3512.0999479 3427.44538827 3512.09975007 3428.19894906 C3512.09691568 3439.68415768 3512.10070979 3451.16935372 3512.10741254 3462.65456032 C3512.11384903 3473.919847 3512.11290604 3485.18511477 3512.10481866 3496.45040204 C3512.10072301 3502.43597839 3512.09962493 3508.42150939 3512.10756935 3514.40708291 C3512.14772948 3546.81872983 3511.42154463 3578.90511609 3507.60074687 3611.12981732 C3507.44167857 3612.49969296 3507.44167857 3612.49969296 3507.27939677 3613.89724286 C3503.91339452 3642.72332412 3498.77081585 3671.06497108 3491.85074687 3699.25481732 C3491.68788188 3699.92194745 3491.52501689 3700.58907757 3491.35721659 3701.27642376 C3485.71077678 3724.35001123 3478.70453859 3746.84221581 3470.85074687 3769.25481732 C3470.42680644 3770.47249798 3470.00286601 3771.69017865 3469.5660789 3772.94475872 C3456.61401471 3809.87980674 3439.97862299 3846.03849084 3420.24967265 3879.83587201 C3418.61050315 3882.6702335 3417.03468465 3885.53575907 3415.46305155 3888.40789349 C3393.5625795 3928.24128696 3365.50301149 3966.60944239 3334.78043437 4000.14544232 C3332.99904291 4002.09271234 3331.26314916 4004.07006203 3329.53824687 4006.06731732 C3320.14845338 4016.8116668 3310.24295563 4027.0246189 3300.14029765 4037.09563763 C3298.08557179 4039.14495243 3296.03631584 4041.19962995 3293.98746562 4043.25481732 C3292.65575521 4044.58586757 3291.32373499 4045.91660793 3289.99137187 4047.24700482 C3289.09264353 4048.1487695 3289.09264353 4048.1487695 3288.17575907 4049.06875164 C3284.4432861 4052.78098512 3280.58717896 4056.30228884 3276.60186076 4059.74181683 C3274.37680331 4061.66431486 3272.2084815 4063.64581998 3270.03824687 4065.62981732 C3265.79985844 4069.4507887 3261.45195583 4073.09729063 3257.01480937 4076.68450482 C3254.63789876 4078.60662193 3252.28398744 4080.55447 3249.93668437 4082.51262982 C3211.85080997 4114.23834427 3169.84558947 4141.47503367 3125.85074687 4164.25481732 C3124.7376414 4164.83328412 3123.62453593 4165.41175091 3122.47769999 4166.00774701 C3051.11428094 4202.91073581 2972.94104793 4227.28731871 2818.49583083 4243.7977335 C2817.71230388 4243.81917829 2816.92877694 4243.84062309 2816.12150675 4243.86271772 C2795.03214333 4244.42259951 2773.94185828 4244.39586062 2752.84658218 4244.38222598 C2746.86276879 4244.37950104 2740.87895769 4244.38269002 2734.89514455 4244.38506282 C2724.40268259 4244.3884325 2713.91022514 4244.38817419 2703.4177634 4244.38537928 C2692.1181204 4244.38238968 2680.81848037 4244.38164591 2669.5188371 4244.38350349 C2668.79827075 4244.38362058 2668.0777044 4244.38373767 2667.3353027 4244.38385831 C2663.6551921 4244.38446594 2659.9750815 4244.38510815 2656.29497091 4244.38576192 C2629.51601533 4244.39044348 2602.73706154 4244.39022488 2575.9581058 4244.38748104 C2548.8358895 4244.38471705 2521.71367445 4244.38414443 2494.59145808 4244.38621838 C2493.30583176 4244.38631515 2493.30583176 4244.38631515 2491.9942332 4244.38641388 C2484.13897002 4244.38700546 2476.28370685 4244.38761937 2468.42844367 4244.38826009 C2448.73478299 4244.38986381 2429.0411223 4244.39112 2409.34746158 4244.39214046 C2408.44524695 4244.39218736 2407.54303231 4244.39223426 2406.61347785 4244.39228258 C2362.18970832 4244.39455881 2317.76593903 4244.39302632 2273.34216952 4244.39111264 C2271.39729562 4244.391029 2269.45242171 4244.39094537 2267.50754781 4244.39086174 C2266.54365489 4244.39082029 2265.57976196 4244.39077883 2264.58666016 4244.39073612 C2251.87459152 4244.39018957 2239.16252288 4244.38965295 2226.45045423 4244.38914282 C2225.47868561 4244.38910366 2224.50691698 4244.3890645 2223.50570083 4244.38902415 C2178.43498355 4244.38722141 2133.36426639 4244.38765192 2088.2935491 4244.38857328 C2083.37387978 4244.38867308 2078.45421046 4244.38876857 2073.53454114 4244.38886455 C2058.70539899 4244.38915515 2043.87625683 4244.3894521 2029.04711467 4244.38976215 C1983.82922121 4244.39070659 1938.61132775 4244.3913069 1893.39343428 4244.39161045 C1891.88333462 4244.39162076 1891.88333462 4244.39162076 1890.3427279 4244.39163127 C1825.16300204 4244.39206988 1759.9832763 4244.39096987 1694.80355048 4244.38876088 C1693.76331148 4244.38872576 1692.72307248 4244.38869064 1691.65131109 4244.38865446 C1656.8103505 4244.38747817 1621.96938992 4244.38622207 1587.12842934 4244.38495783 C1481.77351106 4244.38113749 1376.41859323 4244.37904385 1188.26442606 4244.38507316 C1153.43095061 4244.3863364 1118.59747515 4244.38758494 1083.7639997 4244.38876088 C1082.20402482 4244.38881374 1082.20402482 4244.38881374 1080.61253531 4244.38886768 C1015.46544563 4244.3910736 950.31835603 4244.39205492 885.17126631 4244.39161045 C884.16487761 4244.3916037 883.1584889 4244.39159694 882.12160357 4244.39158998 C836.92927315 4244.39128324 791.73694274 4244.39064488 746.54461233 4244.38969995 C731.72238661 4244.38939042 716.90016089 4244.38909608 702.07793517 4244.3888069 C697.16120334 4244.38871091 692.2444715 4244.38861356 687.32773966 4244.38851304 C642.25739772 4244.38759448 597.18705592 4244.38732662 552.116714 4244.38914282 C550.65993006 4244.38920128 550.65993006 4244.38920128 549.17371615 4244.38926092 C536.4684446 4244.38977268 523.76317305 4244.39031533 511.0579015 4244.39086174 C510.09473189 4244.39090315 509.13156228 4244.39094457 508.13920571 4244.39098724 C506.19602247 4244.3910708 504.25283922 4244.39115443 502.30965598 4244.39123813 C457.94534024 4244.3931442 413.58102476 4244.39444685 369.21670901 4244.39214046 C367.865247 4244.39207043 367.865247 4244.39207043 366.48648273 4244.39199898 C346.82598822 4244.39096861 327.16549374 4244.38964893 307.50499927 4244.38804518 C299.66287771 4244.38740933 291.82075615 4244.38680871 283.97863459 4244.38621838 C283.12322077 4244.38615296 282.26780694 4244.38608755 281.38647148 4244.38602015 C254.30113831 4244.38396518 227.21580643 4244.38496021 200.13047336 4244.38773515 C173.43756174 4244.39045625 146.74465212 4244.39010965 120.05174072 4244.38536679 C116.38581731 4244.38471576 112.71989389 4244.38409929 109.05397046 4244.38350349 C108.33636967 4244.3833855 107.61876888 4244.38326752 106.87942261 4244.38314595 C95.62111146 4244.38138479 84.36280342 4244.38292674 73.10449263 4244.38592485 C62.05580019 4244.38879786 51.00711182 4244.38797099 39.95841961 4244.38358804 C34.09049631 4244.38136037 28.22258449 4244.38061436 22.35466173 4244.38440456 C-45.77785132 4244.42532386 -45.77785132 4244.42532386 -74.08675313 4242.00481732 C-74.84955587 4241.9420158 -75.6123586 4241.87921429 -76.39827657 4241.8145097 C-132.38832123 4237.16291513 -187.83351417 4225.99058754 -241.14925313 4208.25481732 C-242.29716329 4207.88066693 -243.44507345 4207.50651654 -244.62776876 4207.12102826 C-308.60417523 4186.22536595 -370.34727499 4155.29091673 -425.14925313 4116.25481732 C-425.87837911 4115.73677533 -426.60750509 4115.21873333 -427.35872579 4114.6849931 C-440.59774425 4105.25733442 -453.51591273 4095.48276971 -466.14925313 4085.25481732 C-467.40415548 4084.24548138 -467.40415548 4084.24548138 -468.68440938 4083.21575482 C-480.65955517 4073.51571037 -492.21173549 4063.3488185 -503.46614766 4052.82464154 C-505.23881204 4051.17128616 -507.01956789 4049.5269784 -508.80159688 4047.88372357 C-530.28132391 4028.03167016 -530.28132391 4028.03167016 -539.18831563 4017.49700482 C-541.45138767 4014.90934874 -543.80226585 4012.41632743 -546.16146016 4009.91643841 C-551.63009097 4004.12097987 -556.91433066 3998.27647155 -561.88753438 3992.04387982 C-564.01717417 3989.4176919 -566.20988974 3986.86681589 -568.43343282 3984.32073529 C-574.86567349 3976.94112626 -580.79198481 3969.27175912 -586.58089376 3961.38079388 C-588.16691754 3959.23087248 -589.77281338 3957.09714949 -591.38362813 3954.96575482 C-642.94119207 3886.4100367 -680.99750662 3808.11729903 -713.14925313 3693.25481732 C-713.30740499 3692.57775738 -713.46555684 3691.90069745 -713.62850118 3691.20312054 C-728.95517096 3625.38061787 -732.31982656 3559.18577896 -732.27666179 3491.83133245 C-732.27394709 3485.82608944 -732.27712235 3479.82084879 -732.27949864 3473.81560604 C-732.28287476 3463.2760407 -732.28260528 3452.73647986 -732.2798151 3442.19691475 C-732.27682935 3430.84207761 -732.27607921 3419.48724342 -732.27793931 3408.132406 C-732.2780564 3407.40929179 -732.27817349 3406.68617757 -732.27829413 3405.9411508 C-732.27890173 3402.24825834 -732.27954394 3398.55536588 -732.28019774 3394.86247343 C-732.28488368 3367.96579727 -732.28465863 3341.06912289 -732.28191686 3314.17244656 C-732.27915434 3286.92515906 -732.27857906 3259.67787279 -732.2806542 3232.43058522 C-732.28071871 3231.57003407 -732.28078322 3230.70948291 -732.28084969 3229.82285446 C-732.28144126 3221.93599104 -732.28205517 3214.04912762 -732.2826959 3206.16226421 C-732.28429977 3186.38809108 -732.2855559 3166.61391793 -732.28657627 3146.83974476 C-732.28664663 3145.48078916 -732.28664663 3145.48078916 -732.2867184 3144.09437992 C-732.28899542 3099.46998791 -732.28746178 3054.84559611 -732.28554845 3010.22120411 C-732.28546482 3008.2671901 -732.28538118 3006.31317609 -732.28529756 3004.35916208 C-732.2852561 3003.39074113 -732.28521465 3002.42232017 -732.28517193 3001.42455313 C-732.28462539 2988.6530161 -732.28408878 2975.88147906 -732.28357864 2963.10994203 C-732.28353948 2962.13364853 -732.28350032 2961.15735503 -732.28345997 2960.15147687 C-732.28165774 2914.8841207 -732.28208756 2869.61676464 -732.28300909 2824.34940845 C-732.28310889 2819.40923845 -732.28320439 2814.46906844 -732.28330037 2809.52889843 C-732.28359097 2794.63817394 -732.28388791 2779.74744945 -732.28419797 2764.85672496 C-732.28514244 2719.45004934 -732.28574272 2674.04337371 -732.28604627 2628.63669808 C-732.28605314 2627.62573145 -732.28606001 2626.61476482 -732.28606708 2625.57316285 C-732.28650575 2560.11227346 -732.28540545 2494.6513842 -732.28319669 2429.19049485 C-732.28316157 2428.14565748 -732.28312645 2427.10082012 -732.28309027 2426.02432101 C-732.28191396 2391.02868993 -732.28065788 2356.03305886 -732.27939364 2321.03742778 C-732.27557337 2215.21559568 -732.27347953 2109.39376402 -732.27950897 1920.40994228 C-732.28077221 1885.42432264 -732.28202074 1850.43870299 -732.28319669 1815.45308335 C-732.28323194 1814.40857396 -732.28326718 1813.36406457 -732.28330349 1812.28790338 C-732.28550926 1746.86184547 -732.28649077 1681.43578764 -732.28604627 1616.00972969 C-732.28603951 1614.99909419 -732.28603276 1613.98845869 -732.2860258 1612.94719788 C-732.28571906 1567.56499559 -732.28508071 1522.18279332 -732.28413577 1476.80059104 C-732.28382623 1461.91618961 -732.28353189 1447.03178817 -732.28324272 1432.14738674 C-732.28314673 1427.20997031 -732.28304937 1422.27255388 -732.28294886 1417.33513744 C-732.28203016 1372.06809761 -732.28176282 1326.80105793 -732.28357864 1281.53401811 C-732.28361761 1280.55838421 -732.28365658 1279.58275031 -732.28369673 1278.57755175 C-732.2842085 1265.81387349 -732.28475115 1253.05019523 -732.28529756 1240.28651698 C-732.28533897 1239.31890448 -732.28538038 1238.35129199 -732.28542305 1237.35435791 C-732.28550661 1235.40220759 -732.28559024 1233.45005728 -732.28567395 1231.49790696 C-732.28757978 1186.93434223 -732.28888318 1142.37077776 -732.28657627 1097.80721302 C-732.28652959 1096.90239241 -732.2864829 1095.99757181 -732.2864348 1095.06533239 C-732.28540448 1075.32196674 -732.28408483 1055.57860111 -732.28248099 1035.8352355 C-732.28184513 1027.96030716 -732.28124452 1020.08537882 -732.2806542 1012.21045048 C-732.28058878 1011.35145113 -732.28052336 1010.49245179 -732.28045597 1009.60742216 C-732.27840015 982.3973909 -732.27939698 955.18736093 -732.28217097 927.97732977 C-732.28489061 901.16682798 -732.28454834 874.35632819 -732.2798026 847.54582662 C-732.27915155 843.86585602 -732.27853509 840.18588542 -732.27793931 836.50591481 C-732.27782132 835.7855483 -732.27770333 835.06518179 -732.27758177 834.322986 C-732.27581885 823.00966169 -732.27736485 811.69634046 -732.28036066 800.38301651 C-732.28322975 789.28727563 -732.28241273 778.1915388 -732.27802386 767.09579815 C-732.27579224 761.20000277 -732.27505957 755.30421884 -732.27884037 749.408424 C-732.31632205 686.55856759 -732.31632205 686.55856759 -729.89925313 657.56731732 C-729.83678396 656.79618603 -729.77431478 656.02505474 -729.7099526 655.23055584 C-722.97116339 573.00238237 -701.69030834 492.58398997 -633.83040548 353.02288372 C-632.1020763 350.17713928 -630.39948765 347.31710484 -628.70003438 344.45403607 C-610.81042817 314.47834934 -590.41867588 285.68345486 -567.65706563 259.19622357 C-565.29032312 256.42027792 -562.99543282 253.59918539 -560.71175313 250.75481732 C-555.9905447 244.95254505 -550.91931465 239.51114431 -545.80721212 234.05633099 C-544.64072723 232.78884579 -543.49055373 231.50625052 -542.35262227 230.21306927 C-535.48639867 222.42467632 -528.16063977 215.11470047 -520.81063009 207.78582318 C-518.58445451 205.56502425 -516.36369681 203.33890766 -514.14339376 201.11223919 C-512.70686542 199.67637147 -511.27002702 198.24081389 -509.83284688 196.80559857 C-509.18053594 196.15126339 -508.528225 195.49692822 -507.85614705 194.82276471 C-503.98969157 190.97562314 -500.0127785 187.31010955 -495.88127828 183.74872906 C-493.66133448 181.83397619 -491.50038739 179.85778069 -489.33675313 177.87981732 C-485.09484463 174.05567253 -480.74374217 170.40592276 -476.30159688 166.81731732 C-473.96065433 164.92460819 -471.64676102 163.00231556 -469.34065938 161.06731732 C-458.92144922 152.34859739 -448.18425674 144.17726543 -437.14925313 136.25481732 C-436.4061086 135.72082318 -435.66296407 135.18682904 -434.89730001 134.63665326 C-366.37617271 85.54099195 -290.84661525 49.49907008 -95.33675313 4.00481732 C-94.65028707 3.92750378 -93.963821 3.85019024 -93.25655294 3.77053387 C-87.89442103 3.17669241 -82.52529945 2.70348188 -77.14925313 2.25481732 C-76.15332618 2.17143594 -75.15739923 2.08805457 -74.13129267 2.00214648 C-49.42477531 0.02003105 -24.77220522 -0.03129916 0 0 Z "
    fill="#39F2ED" transform="translate(1305.1492531336844,471.74518268182874)" />
  <path
    d="M0 0 C0.66 0 1.32 0 2 0 C13.41665746 22.80985271 24.83096266 45.62088118 36.24254322 68.43327427 C41.542354 79.02776099 46.84290564 89.62187577 52.14526367 100.21508789 C56.77206713 109.45866139 61.39741716 118.70296051 66.02109355 127.9480986 C68.46453847 132.83369591 70.90866192 137.71895083 73.35453224 142.60333443 C90.77955482 177.40293621 90.77955482 177.40293621 97.748456 192.13942051 C105.15267583 207.72157671 112.99527859 223.09561822 120.72477531 238.518013 C123.15698898 243.37230969 125.58650696 248.22795511 128.01623535 253.08349609 C134.17509027 265.39019948 140.3373526 277.69519539 146.5 290 C153.15788786 303.29363892 159.81514387 316.58759217 166.46846724 329.88351631 C168.8746443 334.69175027 171.28165928 339.49956065 173.69075012 344.30633545 C190.77732831 378.39929285 190.77732831 378.39929285 197.72874451 393.09820557 C205.13970053 408.69405963 212.988439 424.08197144 220.72477531 439.518013 C223.15698898 444.37230969 225.58650696 449.22795511 228.01623535 454.08349609 C234.17509027 466.39019948 240.3373526 478.69519539 246.5 491 C253.15788786 504.29363892 259.81514387 517.58759217 266.46846724 530.88351631 C268.8746443 535.69175027 271.28165928 540.49956065 273.69075012 545.30633545 C290.77732831 579.39929285 290.77732831 579.39929285 297.72874451 594.09820557 C305.13970053 609.69405963 312.988439 625.08197144 320.72477531 640.518013 C323.15698898 645.37230969 325.58650696 650.22795511 328.01623535 655.08349609 C334.17509027 667.39019948 340.3373526 679.69519539 346.5 692 C353.15788786 705.29363892 359.81514387 718.58759217 366.46846724 731.88351631 C368.8746443 736.69175027 371.28165928 741.49956065 373.69075012 746.30633545 C390.77732831 780.39929285 390.77732831 780.39929285 397.72874451 795.09820557 C405.13970053 810.69405963 412.988439 826.08197144 420.72477531 841.518013 C423.15698898 846.37230969 425.58650696 851.22795511 428.01623535 856.08349609 C434.17509027 868.39019948 440.3373526 880.69519539 446.5 893 C453.15788786 906.29363892 459.81514387 919.58759217 466.46846724 932.88351631 C468.8746443 937.69175027 471.28165928 942.49956065 473.69075012 947.30633545 C490.77732831 981.39929285 490.77732831 981.39929285 497.72874451 996.09820557 C505.13970053 1011.69405963 512.988439 1027.08197144 520.72477531 1042.518013 C523.15698898 1047.37230969 525.58650696 1052.22795511 528.01623535 1057.08349609 C534.17509027 1069.39019948 540.3373526 1081.69519539 546.5 1094 C553.15788786 1107.29363892 559.81514387 1120.58759217 566.46846724 1133.88351631 C568.8746443 1138.69175027 571.28165928 1143.49956065 573.69075012 1148.30633545 C590.77732831 1182.39929285 590.77732831 1182.39929285 597.72874451 1197.09820557 C605.13970053 1212.69405963 612.988439 1228.08197144 620.72477531 1243.518013 C623.15698898 1248.37230969 625.58650696 1253.22795511 628.01623535 1258.08349609 C634.17509027 1270.39019948 640.3373526 1282.69519539 646.5 1295 C653.15788786 1308.29363892 659.81514387 1321.58759217 666.46846724 1334.88351631 C668.8746443 1339.69175027 671.28165928 1344.49956065 673.69075012 1349.30633545 C690.77732831 1383.39929285 690.77732831 1383.39929285 697.72874451 1398.09820557 C705.13970053 1413.69405963 712.988439 1429.08197144 720.72477531 1444.518013 C723.15698898 1449.37230969 725.58650696 1454.22795511 728.01623535 1459.08349609 C734.17509027 1471.39019948 740.3373526 1483.69519539 746.5 1496 C753.15788786 1509.29363892 759.81514387 1522.58759217 766.46846724 1535.88351631 C768.8746443 1540.69175027 771.28165928 1545.49956065 773.69075012 1550.30633545 C790.77535787 1584.39536141 790.77535787 1584.39536141 796.48632812 1596.47265625 C804.34682535 1613.09463952 812.68890905 1629.48483021 820.92670441 1645.92187119 C823.38694438 1650.83222277 825.84449034 1655.74392224 828.30224609 1660.65551758 C834.5324313 1673.10488018 840.76602343 1685.55253558 847 1698 C853.73487615 1711.44761732 860.46912133 1724.89554854 867.19943428 1738.3454504 C869.63355728 1743.20957556 872.06851868 1748.07327695 874.5055542 1752.9359436 C891.80228399 1787.44916572 891.80228399 1787.44916572 898.73992157 1802.12055969 C906.1464786 1817.70925712 913.99218307 1833.08944185 921.72477531 1848.518013 C924.15698898 1853.37230969 926.58650696 1858.22795511 929.01623535 1863.08349609 C935.17509027 1875.39019948 941.3373526 1887.69519539 947.5 1900 C954.15788786 1913.29363892 960.81514387 1926.58759217 967.46846724 1939.88351631 C969.8746443 1944.69175027 972.28165928 1949.49956065 974.69075012 1954.30633545 C991.77732831 1988.39929285 991.77732831 1988.39929285 998.72874451 2003.09820557 C1006.13970053 2018.69405963 1013.988439 2034.08197144 1021.72477531 2049.518013 C1024.15698898 2054.37230969 1026.58650696 2059.22795511 1029.01623535 2064.08349609 C1035.17509027 2076.39019948 1041.3373526 2088.69519539 1047.5 2101 C1054.15788786 2114.29363892 1060.81514387 2127.58759217 1067.46846724 2140.88351631 C1069.8746443 2145.69175027 1072.28165928 2150.49956065 1074.69075012 2155.30633545 C1092.96124346 2191.76155124 1092.96124346 2191.76155124 1100.89839172 2208.5741272 C1104.04316553 2215.23323245 1107.36455724 2221.80353648 1110.6875 2228.375 C1111.90206201 2230.77749305 1113.11386529 2233.18131501 1114.32421875 2235.5859375 C1114.84072998 2236.6073584 1115.35724121 2237.6287793 1115.8894043 2238.68115234 C1117 2241 1117 2241 1117 2242 C1061.50696494 2242.30817039 1006.01384587 2242.59473632 950.52018738 2242.76217651 C949.6986954 2242.76466154 948.87720341 2242.76714657 948.03081773 2242.7697069 C930.17702355 2242.82358088 912.32322028 2242.87344391 894.46940343 2242.91917593 C885.71373114 2242.94162773 876.9580613 2242.96496574 868.20239258 2242.98876953 C866.89546018 2242.99230003 866.89546018 2242.99230003 865.56212511 2242.99590184 C837.32758819 2243.07258878 809.09370025 2243.20777812 780.8595564 2243.37334997 C751.84208491 2243.54320613 722.82497247 2243.65395364 693.80701224 2243.69046982 C689.7072393 2243.69565651 685.60746757 2243.70151797 681.50769615 2243.70779037 C680.70081277 2243.70900399 679.89392939 2243.7102176 679.062595 2243.71146799 C666.08045124 2243.73272872 653.09941858 2243.81618273 640.11772772 2243.92297661 C627.06237701 2244.02904626 614.00812622 2244.06940045 600.95235983 2244.04302479 C593.19725595 2244.02934565 585.44618138 2244.06569688 577.6918064 2244.17435578 C571.8958849 2244.25001247 566.10329338 2244.23120677 560.30728086 2244.17618011 C557.96644388 2244.16858135 555.62526579 2244.19136867 553.28509913 2244.24789728 C536.27202042 2244.63490422 536.27202042 2244.63490422 530.81833051 2240.24313745 C526.88868164 2236.00089628 523.97933264 2231.2866096 521.23946651 2226.21701358 C519.40855966 2222.94210029 517.23191127 2220.01419077 515 2217 C514.1918207 2215.87135643 513.38558599 2214.74131575 512.58203125 2213.609375 C507.97352221 2207.15782196 503.31921607 2200.73911331 498.67333984 2194.31445312 C495.40770467 2189.79764229 492.14530382 2185.278495 488.88232422 2180.75976562 C486.13748856 2176.95884225 483.39181873 2173.15852668 480.64453125 2169.359375 C475.34317769 2162.02666167 470.05344563 2154.68638156 464.80126953 2147.31835938 C459.7901413 2140.29435105 454.72930529 2133.30621493 449.67333984 2126.31445312 C446.40770467 2121.79764229 443.14530382 2117.278495 439.88232422 2112.75976562 C437.13748856 2108.95884225 434.39181873 2105.15852668 431.64453125 2101.359375 C426.34317769 2094.02666167 421.05344563 2086.68638156 415.80126953 2079.31835938 C410.7901413 2072.29435105 405.72930529 2065.30621493 400.67333984 2058.31445312 C397.94736861 2054.54406981 395.22378466 2050.77196306 392.5 2047 C391.41667856 2045.49999141 390.33334521 2043.99999142 389.25 2042.5 C387.08333333 2039.5 384.91666667 2036.5 382.75 2033.5 C381.94526245 2032.3857666 381.94526245 2032.3857666 381.12426758 2031.24902344 C380.04332809 2029.75231299 378.96243599 2028.25556832 377.8815918 2026.75878906 C375.1370246 2022.95817363 372.39158034 2019.15819702 369.64453125 2015.359375 C364.34317769 2008.02666167 359.05344563 2000.68638156 353.80126953 1993.31835938 C348.7901413 1986.29435105 343.72930529 1979.30621493 338.67333984 1972.31445312 C335.40770467 1967.79764229 332.14530382 1963.278495 328.88232422 1958.75976562 C326.13748856 1954.95884225 323.39181873 1951.15852668 320.64453125 1947.359375 C315.34317769 1940.02666167 310.05344563 1932.68638156 304.80126953 1925.31835938 C299.7901413 1918.29435105 294.72930529 1911.30621493 289.67333984 1904.31445312 C286.40770467 1899.79764229 283.14530382 1895.278495 279.88232422 1890.75976562 C277.13748856 1886.95884225 274.39181873 1883.15852668 271.64453125 1879.359375 C266.34317769 1872.02666167 261.05344563 1864.68638156 255.80126953 1857.31835938 C250.7901413 1850.29435105 245.72930529 1843.30621493 240.67333984 1836.31445312 C237.40770467 1831.79764229 234.14530382 1827.278495 230.88232422 1822.75976562 C228.13748856 1818.95884225 225.39181873 1815.15852668 222.64453125 1811.359375 C217.34317769 1804.02666167 212.05344563 1796.68638156 206.80126953 1789.31835938 C201.7901413 1782.29435105 196.72930529 1775.30621493 191.67333984 1768.31445312 C188.94736861 1764.54406981 186.22378466 1760.77196306 183.5 1757 C182.41667856 1755.49999141 181.33334521 1753.99999142 180.25 1752.5 C178.08333333 1749.5 175.91666667 1746.5 173.75 1743.5 C172.94526245 1742.3857666 172.94526245 1742.3857666 172.12426758 1741.24902344 C171.04332809 1739.75231299 169.96243599 1738.25556832 168.8815918 1736.75878906 C166.1370246 1732.95817363 163.39158034 1729.15819702 160.64453125 1725.359375 C155.34317769 1718.02666167 150.05344563 1710.68638156 144.80126953 1703.31835938 C139.7901413 1696.29435105 134.72930529 1689.30621493 129.67333984 1682.31445312 C126.40770467 1677.79764229 123.14530382 1673.278495 119.88232422 1668.75976562 C117.13748856 1664.95884225 114.39181873 1661.15852668 111.64453125 1657.359375 C106.34317769 1650.02666167 101.05344563 1642.68638156 95.80126953 1635.31835938 C90.7901413 1628.29435105 85.72930529 1621.30621493 80.67333984 1614.31445312 C77.40770467 1609.79764229 74.14530382 1605.278495 70.88232422 1600.75976562 C68.13748856 1596.95884225 65.39181873 1593.15852668 62.64453125 1589.359375 C57.34317769 1582.02666167 52.05344563 1574.68638156 46.80126953 1567.31835938 C41.7901413 1560.29435105 36.72930529 1553.30621493 31.67333984 1546.31445312 C28.94736861 1542.54406981 26.22378466 1538.77196306 23.5 1535 C22.41667856 1533.49999141 21.33334521 1531.99999142 20.25 1530.5 C13.74999998 1521.49999997 13.74999998 1521.49999997 12.1237793 1519.24829102 C11.04453876 1517.75397045 9.96527458 1516.25966696 8.88598633 1514.76538086 C6.11483531 1510.9286279 3.34414313 1507.09154488 0.57421875 1503.25390625 C0.00703125 1502.46822266 -0.56015625 1501.68253906 -1.14453125 1500.87304688 C-2.20849036 1499.39920188 -3.2723073 1497.92525425 -4.3359375 1496.45117188 C-7.2820573 1492.3704498 -10.23714907 1488.2963687 -13.19799805 1484.22631836 C-13.91191208 1483.24489365 -14.62582611 1482.26346893 -15.3613739 1481.25230408 C-15.90212051 1480.50904373 -16.44286713 1479.76578339 -17 1479 C-18.08151209 1509.23330777 -18.19487023 1539.46326362 -18.2654447 1569.71284883 C-18.28292998 1577.12139978 -18.30579808 1584.52993208 -18.32878125 1591.93846767 C-18.37111705 1605.6269347 -18.40946717 1619.31541001 -18.44555664 1633.00389481 C-18.49512677 1651.78707847 -18.55048209 1670.57024211 -18.60723782 1689.35340528 C-18.63384453 1698.16204215 -18.66016488 1706.97067988 -18.68640137 1715.77931786 C-18.68902743 1716.66093477 -18.69165349 1717.54255168 -18.69435912 1718.45088425 C-18.75662811 1739.37935971 -18.81602575 1760.30784317 -18.875 1781.23632812 C-18.87757604 1782.15018255 -18.88015208 1783.06403698 -18.88280618 1784.00558397 C-18.90626947 1792.32958526 -18.92970926 1800.65358661 -18.95312548 1808.97758804 C-19.01005161 1829.21194775 -19.06736708 1849.44630635 -19.125 1869.68066406 C-19.12886028 1871.03648904 -19.12886028 1871.03648904 -19.13279855 1872.41970442 C-19.19195708 1893.19297548 -19.25183672 1913.96624419 -19.31359863 1934.73950768 C-19.31622013 1935.62137271 -19.31884163 1936.50323774 -19.32154256 1937.41182595 C-19.34778877 1946.23666943 -19.37413855 1955.06151258 -19.40064922 1963.88635526 C-19.45682872 1982.59704602 -19.51109748 2001.30773923 -19.56104386 2020.01844773 C-19.59763646 2033.71690994 -19.63681573 2047.4153629 -19.6783514 2061.11381103 C-19.70417573 2069.65996746 -19.72799578 2078.20612237 -19.74775696 2086.75229514 C-19.8843248 2138.50692311 -20.47721585 2190.24436866 -21 2242 C-208.44 2242 -395.88 2242 -589 2242 C-584.50275262 2234.12981708 -584.50275262 2234.12981708 -581.8203125 2230.609375 C-581.22855225 2229.82747803 -580.63679199 2229.04558105 -580.02709961 2228.23999023 C-579.39940674 2227.41829346 -578.77171387 2226.59659668 -578.125 2225.75 C-576.7740454 2223.96536903 -575.42380152 2222.18019986 -574.07421875 2220.39453125 C-573.39278809 2219.49428223 -572.71135742 2218.5940332 -572.00927734 2217.66650391 C-568.95463239 2213.61269684 -565.94324448 2209.52763314 -562.9375 2205.4375 C-562.36467285 2204.65858398 -561.7918457 2203.87966797 -561.20166016 2203.07714844 C-560.04547765 2201.50458421 -558.88955238 2199.93183081 -557.73388672 2198.35888672 C-554.82628372 2194.40320379 -551.91283606 2190.45183011 -549 2186.5 C-547.83330558 2184.91668712 -546.6666389 2183.33335379 -545.5 2181.75 C-543.16666667 2178.58333333 -540.83333333 2175.41666667 -538.5 2172.25 C-537.92233887 2171.4660083 -537.34467773 2170.6820166 -536.74951172 2169.87426758 C-535.58456151 2168.29331017 -534.41952266 2166.71241808 -533.25439453 2165.1315918 C-530.3107302 2161.13744172 -527.36868654 2157.1421157 -524.4296875 2153.14453125 C-518.50190275 2145.08482392 -512.54832033 2137.04675097 -506.53417969 2129.05126953 C-500.89690914 2121.5479322 -495.34128721 2113.98469459 -489.78222656 2106.42333984 C-486.85769254 2102.44677482 -483.92864567 2098.47353729 -481 2094.5 C-479.83331112 2092.91668304 -478.66664447 2091.33334969 -477.5 2089.75 C-475.16666667 2086.58333333 -472.83333333 2083.41666667 -470.5 2080.25 C-469.92233887 2079.4660083 -469.34467773 2078.6820166 -468.74951172 2077.87426758 C-467.58456151 2076.29331017 -466.41952266 2074.71241808 -465.25439453 2073.1315918 C-462.3107302 2069.13744172 -459.36868654 2065.1421157 -456.4296875 2061.14453125 C-450.50190275 2053.08482392 -444.54832033 2045.04675097 -438.53417969 2037.05126953 C-432.89690914 2029.5479322 -427.34128721 2021.98469459 -421.78222656 2014.42333984 C-418.85769254 2010.44677482 -415.92864567 2006.47353729 -413 2002.5 C-411.83331112 2000.91668304 -410.66664447 1999.33334969 -409.5 1997.75 C-402.5 1988.25 -395.5 1978.75 -388.5 1969.25 C-387.92233887 1968.4660083 -387.34467773 1967.6820166 -386.74951172 1966.87426758 C-385.58456151 1965.29331017 -384.41952266 1963.71241808 -383.25439453 1962.1315918 C-380.3107302 1958.13744172 -377.36868654 1954.1421157 -374.4296875 1950.14453125 C-368.50190275 1942.08482392 -362.54832033 1934.04675097 -356.53417969 1926.05126953 C-350.89690914 1918.5479322 -345.34128721 1910.98469459 -339.78222656 1903.42333984 C-336.85769254 1899.44677482 -333.92864567 1895.47353729 -331 1891.5 C-329.83331112 1889.91668304 -328.66664447 1888.33334969 -327.5 1886.75 C-325.16666667 1883.58333333 -322.83333333 1880.41666667 -320.5 1877.25 C-319.92233887 1876.4660083 -319.34467773 1875.6820166 -318.74951172 1874.87426758 C-317.58456151 1873.29331017 -316.41952266 1871.71241808 -315.25439453 1870.1315918 C-312.3107302 1866.13744172 -309.36868654 1862.1421157 -306.4296875 1858.14453125 C-300.50190275 1850.08482392 -294.54832033 1842.04675097 -288.53417969 1834.05126953 C-282.89690914 1826.5479322 -277.34128721 1818.98469459 -271.78222656 1811.42333984 C-268.85769254 1807.44677482 -265.92864567 1803.47353729 -263 1799.5 C-261.83331112 1797.91668304 -260.66664447 1796.33334969 -259.5 1794.75 C-257.16666667 1791.58333333 -254.83333333 1788.41666667 -252.5 1785.25 C-251.92233887 1784.4660083 -251.34467773 1783.6820166 -250.74951172 1782.87426758 C-249.58456151 1781.29331017 -248.41952266 1779.71241808 -247.25439453 1778.1315918 C-244.3107302 1774.13744172 -241.36868654 1770.1421157 -238.4296875 1766.14453125 C-232.50190275 1758.08482392 -226.54832033 1750.04675097 -220.53417969 1742.05126953 C-214.89690914 1734.5479322 -209.34128721 1726.98469459 -203.78222656 1719.42333984 C-200.85769254 1715.44677482 -197.92864567 1711.47353729 -195 1707.5 C-193.83331112 1705.91668304 -192.66664447 1704.33334969 -191.5 1702.75 C-184.5 1693.25 -177.5 1683.75 -170.5 1674.25 C-169.92233887 1673.4660083 -169.34467773 1672.6820166 -168.74951172 1671.87426758 C-167.58456151 1670.29331017 -166.41952266 1668.71241808 -165.25439453 1667.1315918 C-162.3107302 1663.13744172 -159.36868654 1659.1421157 -156.4296875 1655.14453125 C-150.50190275 1647.08482392 -144.54832033 1639.04675097 -138.53417969 1631.05126953 C-132.89690914 1623.5479322 -127.34128721 1615.98469459 -121.78222656 1608.42333984 C-118.85769254 1604.44677482 -115.92864567 1600.47353729 -113 1596.5 C-111.83331112 1594.91668304 -110.66664447 1593.33334969 -109.5 1591.75 C-107.16666667 1588.58333333 -104.83333333 1585.41666667 -102.5 1582.25 C-101.92233887 1581.4660083 -101.34467773 1580.6820166 -100.74951172 1579.87426758 C-99.58456151 1578.29331017 -98.41952266 1576.71241808 -97.25439453 1575.1315918 C-94.3107302 1571.13744172 -91.36868654 1567.1421157 -88.4296875 1563.14453125 C-82.50190275 1555.08482392 -76.54832033 1547.04675097 -70.53417969 1539.05126953 C-64.89690914 1531.5479322 -59.34128721 1523.98469459 -53.78222656 1516.42333984 C-50.85769249 1512.44677474 -47.92859056 1508.47357798 -45 1504.5 C-44.4313623 1503.72809326 -43.86272461 1502.95618652 -43.27685547 1502.16088867 C-40.21276867 1498.00149678 -37.14671238 1493.84357294 -34.078125 1489.6875 C-33.11712891 1488.38522461 -33.11712891 1488.38522461 -32.13671875 1487.05664062 C-30.90550684 1485.38825926 -29.67376054 1483.72027209 -28.44140625 1482.05273438 C-27.88839844 1481.30314453 -27.33539062 1480.55355469 -26.765625 1479.78125 C-26.27868164 1479.12189453 -25.79173828 1478.46253906 -25.29003906 1477.78320312 C-24.15577103 1476.21532014 -23.07343031 1474.61014546 -22 1473 C-21.01 1473.33 -20.02 1473.66 -19 1474 C-18.67 1422.52 -18.34 1371.04 -18 1318 C10.6685139 1328.32066501 10.6685139 1328.32066501 20.375 1331.9375 C22.6353906 1332.77741391 24.89580809 1333.61725545 27.15625 1334.45703125 C28.28160156 1334.87549316 29.40695312 1335.29395508 30.56640625 1335.72509766 C34.03242414 1337.01203917 37.50026961 1338.29393 40.96875 1339.57421875 C51.31210419 1343.39370677 61.6453821 1347.23181399 71.9375 1351.1875 C78.52593221 1353.71737287 85.14231122 1356.13194337 91.8125 1358.4375 C100.98537214 1361.60926815 110.06827154 1364.99492727 119.1484375 1368.421875 C124.18945891 1370.32329977 129.2371094 1372.20600575 134.2890625 1374.078125 C135.0111087 1374.34570618 135.73315491 1374.61328735 136.4770813 1374.88897705 C137.96246713 1375.43933514 139.44786974 1375.98964796 140.93328857 1376.53991699 C152.78877966 1380.93183828 164.62585115 1385.36649725 176.4375 1389.875 C185.15386692 1393.19944755 193.8929752 1396.41245167 202.71240234 1399.45214844 C210.9023144 1402.28500048 219.00176307 1405.34735288 227.109375 1408.40625 C235.33308143 1411.50787396 243.57270284 1414.56644793 251.8125 1417.625 C252.56666199 1417.90501862 253.32082397 1418.18503723 254.09783936 1418.47354126 C265.39205024 1422.66671924 276.69068124 1426.8477134 288 1431 C282.04597266 1416.98260397 275.78528666 1403.12544948 269.375 1389.3125 C263.49033083 1376.63176696 257.7033228 1363.91605885 252.0625 1351.125 C245.54862395 1336.36165959 238.81034038 1321.7100937 232.00292969 1307.08007812 C226.43629967 1295.11509244 220.93562782 1283.1224244 215.48974609 1271.10205078 C214.88380539 1269.76464104 214.27784837 1268.42723869 213.671875 1267.08984375 C213.37258087 1266.42917908 213.07328674 1265.7685144 212.7649231 1265.08782959 C210.54873153 1260.19981558 208.31676461 1255.31917573 206.078125 1250.44140625 C199.01765578 1235.05273918 192.04345618 1219.63240295 185.2024231 1204.14486694 C179.38403557 1190.98600701 173.36046862 1177.9285702 167.28256226 1164.88787842 C161.39542901 1152.25035689 155.65418707 1139.55808784 150.03076172 1126.80126953 C144.27589678 1113.75671632 138.30969531 1100.81749031 132.2857666 1087.89529419 C126.30318203 1075.05523916 120.47574013 1062.15617873 114.76123047 1049.19482422 C110.14383368 1038.72948867 105.39228168 1028.3395728 100.5 1018 C95.25801926 1006.92135714 90.19437648 995.77707835 85.25 984.5625 C79.47851668 971.47212728 73.54457333 958.4664818 67.5 945.5 C61.20407692 931.99274771 55.04186053 918.43753047 49.03076172 904.80126953 C43.6626292 892.63332275 38.11841315 880.55425474 32.5 868.5 C26.20891998 855.00254455 20.04514362 841.45965573 14.04486084 827.83047485 C10.0697679 818.80659491 6.01571389 809.82513504 1.8515625 800.88671875 C1.4161615 799.95175568 0.9807605 799.0167926 0.53216553 798.05349731 C-1.59758153 793.48536358 -3.73532104 788.92114573 -5.8828125 784.36132812 C-6.65893518 782.70316291 -7.43498071 781.04496159 -8.2109375 779.38671875 C-8.56537933 778.64040695 -8.91982117 777.89409515 -9.28500366 777.12516785 C-11.29967489 772.8077027 -12.81587483 768.61717903 -14 764 C-14.66 764 -15.32 764 -16 764 C-16.03362223 742.22917502 -16.05191681 720.4583473 -16.0625 698.6875 C-16.0629343 697.81946228 -16.06336861 696.95142455 -16.06381607 696.05708265 C-16.09066459 640.69648922 -15.97784338 585.3367407 -15.77734375 529.9765625 C-15.77463625 529.22792125 -15.77192875 528.47928 -15.7691392 527.70795265 C-15.64872591 494.44180506 -15.51848901 461.17569833 -15.38246759 427.9096112 C-15.32979778 415.01949334 -15.27810841 402.12937159 -15.22705522 389.23924723 C-15.21877416 387.15062404 -15.21045887 385.06200098 -15.20213962 382.97337794 C-15.00472202 333.31546688 -14.93377884 283.65826898 -15 234 C-15.43052201 234.73396169 -15.43052201 234.73396169 -15.86974144 235.48275089 C-17.18256108 237.72006589 -18.49630201 239.95683858 -19.81005859 242.19360352 C-20.2615477 242.96334755 -20.7130368 243.73309158 -21.1782074 244.52616119 C-24.23338908 249.72586049 -27.36197027 254.86530224 -30.625 259.9375 C-35.42841315 267.47598088 -40.13796991 275.06847699 -44.8125 282.6875 C-50.00514785 291.14824357 -55.22806173 299.58842861 -60.5 308 C-65.7068803 316.30893904 -70.86918086 324.64388181 -76 333 C-81.81209212 342.46500435 -87.67087803 351.89926576 -93.56640625 361.3125 C-97.56373646 367.69642188 -101.5408584 374.09233012 -105.5 380.5 C-110.07937931 387.91149314 -114.68818021 395.30397069 -119.3125 402.6875 C-125.26318836 412.19138864 -131.15150549 421.73229223 -137.01879883 431.2878418 C-142.08932985 439.53860396 -147.21310704 447.75481082 -152.35546875 455.9609375 C-156.94022679 463.28501639 -161.47872264 470.6365894 -166 478 C-171.81209212 487.46500435 -177.67087803 496.89926576 -183.56640625 506.3125 C-187.56373646 512.69642188 -191.5408584 519.09233012 -195.5 525.5 C-200.07937931 532.91149314 -204.68818021 540.30397069 -209.3125 547.6875 C-215.26318836 557.19138864 -221.15150549 566.73229223 -227.01879883 576.2878418 C-232.08932985 584.53860396 -237.21310704 592.75481082 -242.35546875 600.9609375 C-246.94022679 608.28501639 -251.47872264 615.6365894 -256 623 C-261.81209212 632.46500435 -267.67087803 641.89926576 -273.56640625 651.3125 C-277.56373646 657.69642188 -281.5408584 664.09233012 -285.5 670.5 C-290.07937931 677.91149314 -294.68818021 685.30397069 -299.3125 692.6875 C-305.26318836 702.19138864 -311.15150549 711.73229223 -317.01879883 721.2878418 C-322.08932985 729.53860396 -327.21310704 737.75481082 -332.35546875 745.9609375 C-336.94022679 753.28501639 -341.47872264 760.6365894 -346 768 C-351.81209212 777.46500435 -357.67087803 786.89926576 -363.56640625 796.3125 C-367.56373646 802.69642188 -371.5408584 809.09233012 -375.5 815.5 C-380.07937931 822.91149314 -384.68818021 830.30397069 -389.3125 837.6875 C-395.26318836 847.19138864 -401.15150549 856.73229223 -407.01879883 866.2878418 C-412.08932985 874.53860396 -417.21310704 882.75481082 -422.35546875 890.9609375 C-426.94022679 898.28501639 -431.47872264 905.6365894 -436 913 C-441.81209212 922.46500435 -447.67087803 931.89926576 -453.56640625 941.3125 C-457.56373646 947.69642188 -461.5408584 954.09233012 -465.5 960.5 C-470.07937931 967.91149314 -474.68818021 975.30397069 -479.3125 982.6875 C-485.26318836 992.19138864 -491.15150549 1001.73229223 -497.01879883 1011.2878418 C-502.08932985 1019.53860396 -507.21310704 1027.75481082 -512.35546875 1035.9609375 C-516.94022679 1043.28501639 -521.47872264 1050.6365894 -526 1058 C-531.81209212 1067.46500435 -537.67087803 1076.89926576 -543.56640625 1086.3125 C-547.56373646 1092.69642188 -551.5408584 1099.09233012 -555.5 1105.5 C-560.07937931 1112.91149314 -564.68818021 1120.30397069 -569.3125 1127.6875 C-575.26318836 1137.19138864 -581.15150549 1146.73229223 -587.01879883 1156.2878418 C-592.08932985 1164.53860396 -597.21310704 1172.75481082 -602.35546875 1180.9609375 C-606.94022679 1188.28501639 -611.47872264 1195.6365894 -616 1203 C-621.81209212 1212.46500435 -627.67087803 1221.89926576 -633.56640625 1231.3125 C-637.56373646 1237.69642188 -641.5408584 1244.09233012 -645.5 1250.5 C-650.07937931 1257.91149314 -654.68818021 1265.30397069 -659.3125 1272.6875 C-665.26318836 1282.19138864 -671.15150549 1291.73229223 -677.01879883 1301.2878418 C-682.08932985 1309.53860396 -687.21310704 1317.75481082 -692.35546875 1325.9609375 C-696.94022679 1333.28501639 -701.47872264 1340.6365894 -706 1348 C-711.81209212 1357.46500435 -717.67087803 1366.89926576 -723.56640625 1376.3125 C-727.56373646 1382.69642188 -731.5408584 1389.09233012 -735.5 1395.5 C-740.07937931 1402.91149314 -744.68818021 1410.30397069 -749.3125 1417.6875 C-755.26318836 1427.19138864 -761.15150549 1436.73229223 -767.01879883 1446.2878418 C-772.08932985 1454.53860396 -777.21310704 1462.75481082 -782.35546875 1470.9609375 C-786.94022679 1478.28501639 -791.47872264 1485.6365894 -796 1493 C-801.81209212 1502.46500435 -807.67087803 1511.89926576 -813.56640625 1521.3125 C-817.56373646 1527.69642188 -821.5408584 1534.09233012 -825.5 1540.5 C-830.07937931 1547.91149314 -834.68818021 1555.30397069 -839.3125 1562.6875 C-845.26318836 1572.19138864 -851.15150549 1581.73229223 -857.01879883 1591.2878418 C-862.08932985 1599.53860396 -867.21310704 1607.75481082 -872.35546875 1615.9609375 C-876.94022679 1623.28501639 -881.47872264 1630.6365894 -886 1638 C-891.81209212 1647.46500435 -897.67087803 1656.89926576 -903.56640625 1666.3125 C-907.56373646 1672.69642188 -911.5408584 1679.09233012 -915.5 1685.5 C-920.07937931 1692.91149314 -924.68818021 1700.30397069 -929.3125 1707.6875 C-935.26318836 1717.19138864 -941.15150549 1726.73229223 -947.01879883 1736.2878418 C-952.08932985 1744.53860396 -957.21310704 1752.75481082 -962.35546875 1760.9609375 C-966.94022679 1768.28501639 -971.47872264 1775.6365894 -976 1783 C-981.81209212 1792.46500435 -987.67087803 1801.89926576 -993.56640625 1811.3125 C-997.56373646 1817.69642188 -1001.5408584 1824.09233012 -1005.5 1830.5 C-1010.07937931 1837.91149314 -1014.68818021 1845.30397069 -1019.3125 1852.6875 C-1025.26318836 1862.19138864 -1031.15150549 1871.73229223 -1037.01879883 1881.2878418 C-1042.08932985 1889.53860396 -1047.21310704 1897.75481082 -1052.35546875 1905.9609375 C-1056.94022679 1913.28501639 -1061.47872264 1920.6365894 -1066 1928 C-1071.81209212 1937.46500435 -1077.67087803 1946.89926576 -1083.56640625 1956.3125 C-1087.56373646 1962.69642188 -1091.5408584 1969.09233012 -1095.5 1975.5 C-1100.07937931 1982.91149314 -1104.68818021 1990.30397069 -1109.3125 1997.6875 C-1115.26318836 2007.19138864 -1121.15150549 2016.73229223 -1127.01879883 2026.2878418 C-1132.08932985 2034.53860396 -1137.21310704 2042.75481082 -1142.35546875 2050.9609375 C-1146.94022679 2058.28501639 -1151.47872264 2065.6365894 -1156 2073 C-1161.81209212 2082.46500435 -1167.67087803 2091.89926576 -1173.56640625 2101.3125 C-1177.56373646 2107.69642188 -1181.5408584 2114.09233012 -1185.5 2120.5 C-1190.07937931 2127.91149314 -1194.68818021 2135.30397069 -1199.3125 2142.6875 C-1205.26318836 2152.19138864 -1211.15150549 2161.73229223 -1217.01879883 2171.2878418 C-1222.08347493 2179.52907686 -1227.20081961 2187.73612438 -1232.33789062 2195.93237305 C-1237.76099275 2204.59459041 -1243.11980498 2213.29567124 -1248.45898438 2222.00976562 C-1249.69843271 2224.03013063 -1250.95192348 2226.04195955 -1252.22045898 2228.04418945 C-1254.05546208 2230.98398377 -1254.05546208 2230.98398377 -1255.51586914 2234.18041992 C-1257.10898415 2237.30218283 -1258.44292087 2239.59582365 -1261 2242 C-1265.88118095 2243.32300358 -1270.42693431 2243.04919152 -1275.4375 2242.6875 C-1276.74138672 2242.63787109 -1278.04527344 2242.58824219 -1279.38867188 2242.53710938 C-1282.59817632 2242.40778868 -1285.79619957 2242.22741163 -1289 2242 C-1287.53399916 2237.39045103 -1285.75103661 2233.67652443 -1283.1875 2229.5625 C-1279.18169738 2223.04080724 -1275.37357499 2216.42260717 -1271.625 2209.75 C-1266.32612759 2200.33165445 -1260.94802192 2190.96388283 -1255.51904297 2181.62011719 C-1252.56440211 2176.52381283 -1249.62810814 2171.41690938 -1246.6875 2166.3125 C-1241.7794723 2157.79504249 -1236.84085416 2149.29635451 -1231.875 2140.8125 C-1226.82500645 2132.17925454 -1221.86856472 2123.49774105 -1216.9621582 2114.78222656 C-1208.6753482 2100.07623276 -1200.21054217 2085.47161256 -1191.67724609 2070.9074707 C-1185.72329508 2060.74330931 -1179.90859116 2050.51269402 -1174.18164062 2040.21899414 C-1169.85269601 2032.46216042 -1165.37466794 2024.80503928 -1160.82836914 2017.17407227 C-1156.35031107 2009.64028596 -1152.02617939 2002.02592636 -1147.72973633 1994.38745117 C-1143.06142361 1986.09112021 -1138.30142628 1977.85103303 -1133.51904297 1969.62011719 C-1130.56440211 1964.52381283 -1127.62810814 1959.41690938 -1124.6875 1954.3125 C-1119.7794723 1945.79504249 -1114.84085416 1937.29635451 -1109.875 1928.8125 C-1104.82500645 1920.17925454 -1099.86856472 1911.49774105 -1094.9621582 1902.78222656 C-1086.6753482 1888.07623276 -1078.21054217 1873.47161256 -1069.67724609 1858.9074707 C-1063.72329508 1848.74330931 -1057.90859116 1838.51269402 -1052.18164062 1828.21899414 C-1047.85269601 1820.46216042 -1043.37466794 1812.80503928 -1038.82836914 1805.17407227 C-1034.35031107 1797.64028596 -1030.02617939 1790.02592636 -1025.72973633 1782.38745117 C-1021.06142361 1774.09112021 -1016.30142628 1765.85103303 -1011.51904297 1757.62011719 C-1008.5644022 1752.52381299 -1005.62806519 1747.41693395 -1002.6875 1742.3125 C-998.37445265 1734.82627819 -994.04161226 1727.35252893 -989.67285156 1719.89868164 C-983.71862518 1709.73846613 -977.90699224 1699.5098201 -972.18164062 1689.21899414 C-967.85269601 1681.46216042 -963.37466794 1673.80503928 -958.82836914 1666.17407227 C-954.35031107 1658.64028596 -950.02617939 1651.02592636 -945.72973633 1643.38745117 C-941.06142361 1635.09112021 -936.30142628 1626.85103303 -931.51904297 1618.62011719 C-928.56440211 1613.52381283 -925.62810814 1608.41690938 -922.6875 1603.3125 C-917.7794723 1594.79504249 -912.84085416 1586.29635451 -907.875 1577.8125 C-902.82500645 1569.17925454 -897.86856472 1560.49774105 -892.9621582 1551.78222656 C-884.6753482 1537.07623276 -876.21054217 1522.47161256 -867.67724609 1507.9074707 C-861.72329508 1497.74330931 -855.90859116 1487.51269402 -850.18164062 1477.21899414 C-845.85269601 1469.46216042 -841.37466794 1461.80503928 -836.82836914 1454.17407227 C-832.35031107 1446.64028596 -828.02617939 1439.02592636 -823.72973633 1431.38745117 C-819.06142361 1423.09112021 -814.30142628 1414.85103303 -809.51904297 1406.62011719 C-806.56440211 1401.52381283 -803.62810814 1396.41690938 -800.6875 1391.3125 C-795.7794723 1382.79504249 -790.84085416 1374.29635451 -785.875 1365.8125 C-780.82500645 1357.17925454 -775.86856472 1348.49774105 -770.9621582 1339.78222656 C-762.6753482 1325.07623276 -754.21054217 1310.47161256 -745.67724609 1295.9074707 C-739.72329508 1285.74330931 -733.90859116 1275.51269402 -728.18164062 1265.21899414 C-723.85269601 1257.46216042 -719.37466794 1249.80503928 -714.82836914 1242.17407227 C-710.35031107 1234.64028596 -706.02617939 1227.02592636 -701.72973633 1219.38745117 C-697.06142361 1211.09112021 -692.30142628 1202.85103303 -687.51904297 1194.62011719 C-684.56440211 1189.52381283 -681.62810814 1184.41690938 -678.6875 1179.3125 C-673.7794723 1170.79504249 -668.84085416 1162.29635451 -663.875 1153.8125 C-658.82500645 1145.17925454 -653.86856472 1136.49774105 -648.9621582 1127.78222656 C-640.6753482 1113.07623276 -632.21054217 1098.47161256 -623.67724609 1083.9074707 C-617.72329508 1073.74330931 -611.90859116 1063.51269402 -606.18164062 1053.21899414 C-601.85349729 1045.46359621 -597.37690815 1037.8075073 -592.83056641 1030.1784668 C-588.32337432 1022.59719133 -583.9784833 1014.93082692 -579.65722656 1007.24243164 C-576.55582839 1001.73169442 -573.41368691 996.25106472 -570.1875 990.8125 C-565.43504373 982.7994429 -560.82200524 974.70809954 -556.21084595 966.61328125 C-551.48307654 958.31596492 -546.70709139 950.04968764 -541.875 941.8125 C-537.13009496 933.72014814 -532.49813867 925.57254781 -527.9375 917.375 C-523.03284774 908.55917225 -517.991634 899.84061742 -512.82836914 891.17407227 C-508.35031107 883.64028596 -504.02617939 876.02592636 -499.72973633 868.38745117 C-495.06142361 860.09112021 -490.30142628 851.85103303 -485.51904297 843.62011719 C-482.56440211 838.52381283 -479.62810814 833.41690938 -476.6875 828.3125 C-471.7794723 819.79504249 -466.84085416 811.29635451 -461.875 802.8125 C-456.82500645 794.17925454 -451.86856472 785.49774105 -446.9621582 776.78222656 C-438.6753482 762.07623276 -430.21054217 747.47161256 -421.67724609 732.9074707 C-415.72329508 722.74330931 -409.90859116 712.51269402 -404.18164062 702.21899414 C-399.85269601 694.46216042 -395.37466794 686.80503928 -390.82836914 679.17407227 C-386.35031107 671.64028596 -382.02617939 664.02592636 -377.72973633 656.38745117 C-373.06142361 648.09112021 -368.30142628 639.85103303 -363.51904297 631.62011719 C-360.56440211 626.52381283 -357.62810814 621.41690938 -354.6875 616.3125 C-349.7794723 607.79504249 -344.84085416 599.29635451 -339.875 590.8125 C-334.82500645 582.17925454 -329.86856472 573.49774105 -324.9621582 564.78222656 C-316.6753482 550.07623276 -308.21054217 535.47161256 -299.67724609 520.9074707 C-293.72329508 510.74330931 -287.90859116 500.51269402 -282.18164062 490.21899414 C-277.85269601 482.46216042 -273.37466794 474.80503928 -268.82836914 467.17407227 C-264.35031107 459.64028596 -260.02617939 452.02592636 -255.72973633 444.38745117 C-251.06142361 436.09112021 -246.30142628 427.85103303 -241.51904297 419.62011719 C-238.56440211 414.52381283 -235.62810814 409.41690938 -232.6875 404.3125 C-227.7794723 395.79504249 -222.84085416 387.29635451 -217.875 378.8125 C-212.82500645 370.17925454 -207.86856472 361.49774105 -202.9621582 352.78222656 C-194.6753482 338.07623276 -186.21054217 323.47161256 -177.67724609 308.9074707 C-171.72329508 298.74330931 -165.90859116 288.51269402 -160.18164062 278.21899414 C-155.85349729 270.46359621 -151.37690815 262.8075073 -146.83056641 255.1784668 C-142.32337432 247.59719133 -137.9784833 239.93082692 -133.65722656 232.24243164 C-130.55582839 226.73169442 -127.41368691 221.25106472 -124.1875 215.8125 C-119.43504373 207.7994429 -114.82200524 199.70809954 -110.21084595 191.61328125 C-105.48307654 183.31596492 -100.70709139 175.04968764 -95.875 166.8125 C-91.13009496 158.72014814 -86.49813867 150.57254781 -81.9375 142.375 C-77.03284774 133.55917225 -71.991634 124.84061742 -66.82836914 116.17407227 C-62.35031107 108.64028596 -58.02617939 101.02592636 -53.72973633 93.38745117 C-49.06142361 85.09112021 -44.30142628 76.85103303 -39.51904297 68.62011719 C-36.56440209 63.52381279 -33.62811736 58.4169041 -30.6875 53.3125 C-25.69549236 44.6496366 -20.673398 36.00511078 -15.625 27.375 C-10.31938135 18.30328986 -5.10603514 9.18546004 0 0 Z "
    fill="#021933" transform="translate(2819,1428)" />
  <path
    d="M0 0 C0.33 0 0.66 0 1 0 C1.11198947 91.20190618 1.07497924 182.40346824 0.61855791 351.26140056 C0.5807622 363.70219538 0.54478454 376.14299398 0.51029928 388.58379841 C0.46526582 404.82502556 0.41694288 421.06623795 0.36322176 437.30743885 C0.33702464 445.24314879 0.31206776 453.17885694 0.29090881 461.11458206 C0.12196201 523.84145518 0.12196201 523.84145518 -1 552 C-2.41681634 551.68817931 -3.83344651 551.37551263 -5.25 551.0625 C-6.03890625 550.88847656 -6.8278125 550.71445313 -7.640625 550.53515625 C-9.1355108 550.19608447 -10.62187763 549.81439937 -12.0907135 549.37602234 C-15.35187538 548.73375638 -18.23001887 550.24229075 -21.24609375 551.39453125 C-21.96047104 551.65724319 -22.67484833 551.91995514 -23.41087341 552.19062805 C-24.95149193 552.75840887 -26.49032423 553.33105506 -28.02752686 553.90802002 C-32.11615621 555.44251156 -36.21738329 556.942766 -40.31640625 558.44921875 C-41.14233276 558.75400146 -41.96825928 559.05878418 -42.81921387 559.37280273 C-50.13472252 562.06736228 -57.49348884 564.6164898 -64.875 567.125 C-74.63229745 570.45483385 -84.3309838 573.92313994 -94 577.5 C-103.54565435 581.03041637 -113.11827278 584.45956144 -122.75 587.75 C-134.89102062 591.89863953 -146.98257121 596.17690943 -159.0625 600.5 C-159.97425995 600.82626373 -160.8860199 601.15252747 -161.82540894 601.48867798 C-166.28960272 603.08655773 -170.75336777 604.68563007 -175.21679688 606.28564453 C-181.413871 608.50711319 -187.612826 610.72329691 -193.8125 612.9375 C-194.88411377 613.320271 -195.95572754 613.70304199 -197.05981445 614.09741211 C-207.78700639 617.92716911 -218.51816534 621.74577548 -229.25 625.5625 C-230.1955072 625.89877411 -231.1410144 626.23504822 -232.11517334 626.58151245 C-243.33797465 630.57231941 -254.56348341 634.5553817 -265.79296875 638.52734375 C-266.85337372 638.90250626 -267.91377869 639.27766876 -269.00631714 639.66419983 C-274.0984793 641.46566747 -279.19098863 643.26614061 -284.28417969 645.06469727 C-286.16733196 645.7305912 -288.05047022 646.39652479 -289.93359375 647.0625 C-290.83981476 647.38214218 -291.74603577 647.70178436 -292.67971802 648.03111267 C-297.54395425 649.75255379 -302.39222928 651.50996844 -307.22705078 653.3125 C-308.24162857 653.68882568 -309.25620636 654.06515137 -310.30152893 654.45288086 C-312.2536473 655.17887901 -314.20342201 655.9112183 -316.15049744 656.65063477 C-317.02001541 656.97346436 -317.88953339 657.29629395 -318.78540039 657.62890625 C-319.9368026 658.0631189 -319.9368026 658.0631189 -321.11146545 658.50610352 C-323 659 -323 659 -325 658 C-324.60321045 657.21165771 -324.2064209 656.42331543 -323.79760742 655.61108398 C-322.26179607 652.55696657 -320.72807467 649.50181546 -319.19555664 646.44604492 C-318.54398981 645.14780314 -317.89169621 643.84992576 -317.23852539 642.55249023 C-313.02270749 634.17671484 -308.91823407 625.75494658 -304.89453125 617.28515625 C-300.68288005 608.43275342 -296.36148877 599.63868118 -291.96875 590.875 C-291.66521921 590.26937288 -291.36168842 589.66374577 -291.04895973 589.03976631 C-288.55535135 584.06646578 -286.05647514 579.09581626 -283.55743408 574.12524414 C-281.37961766 569.79304234 -279.20381358 565.45983866 -277.03125 561.125 C-276.57467262 560.21412628 -276.57467262 560.21412628 -276.10887146 559.28485107 C-272.15746102 551.39479133 -268.28205848 543.47272249 -264.5 535.5 C-260.42379059 526.9071962 -256.23042479 518.37705848 -251.96875 509.875 C-251.66464706 509.26823425 -251.36054413 508.66146851 -251.04722595 508.03631592 C-248.5541954 503.06416557 -246.05589696 498.09466626 -243.55743408 493.12524414 C-241.37961766 488.79304234 -239.20381358 484.45983866 -237.03125 480.125 C-236.57467262 479.21412628 -236.57467262 479.21412628 -236.10887146 478.28485107 C-232.15746102 470.39479133 -228.28205848 462.47272249 -224.5 454.5 C-220.42379059 445.9071962 -216.23042479 437.37705848 -211.96875 428.875 C-211.66464706 428.26823425 -211.36054413 427.66146851 -211.04722595 427.03631592 C-208.5541954 422.06416557 -206.05589696 417.09466626 -203.55743408 412.12524414 C-201.37961766 407.79304234 -199.20381296 403.45983896 -197.03125 399.125 C-196.72669891 398.51741852 -196.42214783 397.90983704 -196.10836792 397.28384399 C-192.1675487 389.41492422 -188.3024829 381.51418694 -184.53125 373.5625 C-180.37543857 364.80093161 -176.09490884 356.10636163 -171.75 347.4375 C-171.43490982 346.80875977 -171.11981964 346.18001953 -170.79518127 345.53222656 C-168.20734553 340.37048478 -165.61424916 335.2113897 -163.02099609 330.05236816 C-160.76158554 325.55695334 -158.50417314 321.06054355 -156.25 316.5625 C-155.77706261 315.61890625 -155.77706261 315.61890625 -155.29457092 314.65625 C-150.81462238 305.71033092 -146.44665778 296.71645202 -142.15930176 287.67651367 C-138.52083206 280.02988841 -134.76325442 272.44506205 -130.96875 264.875 C-130.66460175 264.26814362 -130.36045349 263.66128723 -130.04708862 263.03604126 C-127.55410386 258.06398246 -125.05585098 253.09457481 -122.55743408 248.12524414 C-120.37961766 243.79304234 -118.20381358 239.45983866 -116.03125 235.125 C-115.57467262 234.21412628 -115.57467262 234.21412628 -115.10887146 233.28485107 C-111.15746102 225.39479133 -107.28205848 217.47272249 -103.5 209.5 C-99.42379059 200.9071962 -95.23042479 192.37705848 -90.96875 183.875 C-90.66464706 183.26823425 -90.36054413 182.66146851 -90.04722595 182.03631592 C-87.5541954 177.06416557 -85.05589696 172.09466626 -82.55743408 167.12524414 C-80.37961766 162.79304234 -78.20381358 158.45983866 -76.03125 154.125 C-75.57467262 153.21412628 -75.57467262 153.21412628 -75.10887146 152.28485107 C-71.15746102 144.39479133 -67.28205848 136.47272249 -63.5 128.5 C-59.42379059 119.9071962 -55.23042479 111.37705848 -50.96875 102.875 C-50.66464706 102.26823425 -50.36054413 101.66146851 -50.04722595 101.03631592 C-47.5541954 96.06416557 -45.05589696 91.09466626 -42.55743408 86.12524414 C-40.37961767 81.79304235 -38.20380326 77.45984382 -36.03125 73.125 C-35.72846445 72.52092882 -35.4256789 71.91685764 -35.11371803 71.29448128 C-30.59486435 62.27109033 -26.1892776 53.19831442 -21.86003113 44.08250427 C-17.4688091 34.84612752 -12.90638694 25.69934813 -8.3125 16.5625 C-7.49524824 14.93304023 -6.67819079 13.30348299 -5.86132812 11.67382812 C-3.90976513 7.78143737 -1.95566586 3.89033085 0 0 Z "
    fill="#021933" transform="translate(2802,2194)" />
</svg>