<svg version="1.0" xmlns="http://www.w3.org/2000/svg" width="800" height="800" viewBox="0 0 64 64"><path fill="#F9EBB2" d="M47.777 9.142l7.085 7.086-1.418 1.417-7.084-7.086z"/><path fill="#B4CCB9" d="M21.506 35.41c2.588 1.1 4.27 2.74 4.308 2.777.037.037 1.678 1.72 2.777 4.308l23.436-23.437-7.084-7.084L21.506 35.41z"/><path fill="#506C7F" d="M60.528 3.473a5.01 5.01 0 00-7.085-.001l-4.251 4.251 7.086 7.085 4.25-4.251a5.008 5.008 0 000-7.084z"/><path fill="#F76D57" d="M24.396 53.774c-4.213 4.214-8.109 4.691-12.619 5.243-2.767.339-5.605.687-8.699 1.906 1.22-3.095 1.567-5.934 1.905-8.699.553-4.51 1.03-8.407 5.243-12.62 6.977-6.977 13.881-.285 14.169-.001.287.292 6.978 7.195.001 14.171z"/><g fill="#394240"><path d="M61.946 2.055a7.015 7.015 0 00-9.92 0L19.368 34.713c-3.036-.691-6.808-.276-10.559 3.475-4.702 4.702-5.243 9.118-5.815 13.795-.407 3.319-.827 6.751-2.861 10.527a1.002 1.002 0 001.358 1.358c3.777-2.034 7.209-2.454 10.528-2.86 4.676-.573 9.092-1.113 13.794-5.815 3.751-3.751 4.167-7.522 3.475-10.56l32.659-32.657a7.017 7.017 0 00-.001-9.921zm-37.55 51.719c-4.213 4.214-8.109 4.691-12.619 5.243-2.767.339-5.605.687-8.699 1.906 1.22-3.095 1.567-5.934 1.905-8.699.553-4.51 1.03-8.407 5.243-12.62 6.977-6.977 13.881-.285 14.169-.001.287.292 6.978 7.195.001 14.171zm4.195-11.279c-1.1-2.588-2.74-4.271-2.777-4.308-.038-.037-1.72-1.678-4.308-2.777l23.437-23.436 7.084 7.084-23.436 23.437zm24.852-24.853l-7.084-7.085 1.417-1.417 7.084 7.085-1.417 1.417zm2.835-2.834l-7.086-7.085 4.251-4.251a5.01 5.01 0 017.085 7.085l-4.25 4.251z"/><path d="M21.562 41.022a1 1 0 000 1.417 6.011 6.011 0 010 8.502 1.003 1.003 0 001.417 1.417 8.016 8.016 0 000-11.336 1 1 0 00-1.417 0z"/></g></svg>