<svg xmlns="http://www.w3.org/2000/svg" viewBox="0 0 224 196.178" width="512" height="512"><path fill="#D0E8FF" d="M24 96.178c-8.822 0-16 7.178-16 16s7.178 16 16 16 16-7.178 16-16-7.178-16-16-16zM52 32.178c-8.822 0-16 7.178-16 16s7.178 16 16 16 16-7.178 16-16-7.178-16-16-16zM200 116.178c-8.822 0-16 7.178-16 16s7.178 16 16 16 16-7.178 16-16-7.178-16-16-16z"/><path fill="#5CB0FF" d="M200 92.178c8.822 0 16-7.178 16-16s-7.178-16-16-16-16 7.178-16 16 7.178 16 16 16z"/><path fill="#1C71DA" d="M200 108.178c-11.869 0-21.725 8.668-23.639 20H160c-13.234 0-24 10.76-24 23.986v44.014h8v-44.014c0-8.814 7.178-15.986 16-15.986h16.361c1.914 11.332 11.77 20 23.639 20 13.234 0 24-10.766 24-24s-10.766-24-24-24zm0 40c-8.822 0-16-7.178-16-16s7.178-16 16-16 16 7.177 16 16-7.178 16-16 16zM92 48.178H76c0-13.235-10.766-24-24-24s-24 10.765-24 24 10.766 24 24 24c10.426 0 19.295-6.694 22.6-16H92c8.822 0 16 7.187 16 16.023v123.977h8V72.2c0-13.246-10.766-24.023-24-24.023zm-40 16c-8.822 0-16-7.178-16-16s7.178-16 16-16 16 7.178 16 16-7.178 16-16 16z"/><path fill="#1C71DA" d="M64 108.178H47.639c-1.914-11.332-11.77-20-23.639-20-13.234 0-24 10.765-24 24s10.766 24 24 24c11.869 0 21.725-8.668 23.639-20H64c8.822 0 16 7.183 16 16.013v63.987h8V132.19c0-13.24-10.766-24.013-24-24.013zm-40 20c-8.822 0-16-7.178-16-16s7.178-16 16-16 16 7.177 16 16-7.178 16-16 16zM163.46 80.178h12.901c1.914 11.332 11.77 20 23.639 20 13.234 0 24-10.766 24-24s-10.766-24-24-24c-11.869 0-21.725 8.668-23.639 20h-12.9c-6.297 0-11.42-5.125-11.42-11.426V.178h-8v60.574c0 10.711 8.711 19.426 19.42 19.426zm36.54-20c8.822 0 16 7.178 16 16s-7.178 16-16 16-16-7.178-16-16 7.178-16 16-16z"/><path fill="#FF5D5D" d="M136.252 116.002a4 4 0 01-2.829-6.828l14.143-14.142a4 4 0 015.657 5.657l-14.142 14.141a3.989 3.989 0 01-2.829 1.172z"/><path fill="#FF5D5D" d="M150.394 116a3.987 3.987 0 01-2.828-1.171l-14.142-14.143a4 4 0 115.657-5.657l14.142 14.143a4 4 0 01-2.829 6.828z"/><path fill="#00D40B" d="M38.252 192.002c-7.72 0-14-6.28-14-14s6.28-14 14-14 14 6.28 14 14-6.28 14-14 14zm0-20c-3.308 0-6 2.692-6 6s2.692 6 6 6 6-2.692 6-6-2.691-6-6-6z"/><path fill="#FFC504" d="M123.566 30.627a3.987 3.987 0 01-2.829-1.172l-11.313-11.313a4 4 0 010-5.657l11.313-11.313a4 4 0 015.657 0l11.314 11.313a3.999 3.999 0 010 5.657l-11.314 11.313a3.987 3.987 0 01-2.828 1.172zm-5.657-15.313l5.657 5.656 5.657-5.657-5.657-5.656-5.657 5.656z"/></svg>