<svg fill="#4b80fb" height="800" width="800" xmlns="http://www.w3.org/2000/svg" viewBox="0 0 321.492 321.492"
  stroke="#4b80fb">
  <path
    d="M296.635 165.204h-26.861V9a9 9 0 00-9-9H84.409a8.998 8.998 0 00-6.78 3.082L18.077 71.315a8.996 8.996 0 00-2.22 5.918v235.259a9 9 0 009 9h235.917a9 9 0 009-9v-25.778h26.861a9 9 0 009-9v-103.51a9 9 0 00-9-9zm-9 103.51H94.497v-85.51h193.139v85.51zM75.409 32.999v35.234H44.657l30.752-35.234zm176.365 270.493H33.857V86.233h50.552a9 9 0 009-9V18h158.365v147.204H85.497a9 9 0 00-9 9v103.51a9 9 0 009 9h166.277v16.778z" />
  <path
    d="M146.802 200.112H123.75v52.216h22.616c17.235 0 21.672-16.145 21.672-27.344 0-9.89-3.636-24.872-21.236-24.872zm-1.745 43.199H134.44v-34.18h10.472c4.654 0 11.999 1.236 11.999 16.653 0 8.581-2.982 17.527-11.854 17.527zM199.021 198.731c-6.908 0-25.089 2.981-25.089 27.489s18.181 27.489 25.089 27.489c6.909 0 25.09-2.981 25.09-27.489s-18.181-27.489-25.09-27.489zm0 45.743c-5.891 0-14.181-3.636-14.181-18.253s8.29-18.254 14.181-18.254 14.182 3.637 14.182 18.254-8.291 18.253-14.182 18.253zM254.514 198.731c-13.453 0-23.998 9.309-23.998 27.562 0 18.035 9.963 27.417 23.853 27.417 13.091 0 20.509-7.927 22.69-19.271H266.15c-1.309 6.399-5.526 9.817-11.563 9.817-9.236 0-12.945-8.436-12.945-17.817 0-14.763 7.709-18.254 12.945-18.254 9.018 0 10.69 5.891 11.563 9.019h10.909c-.582-7.71-6.909-18.473-22.545-18.473zM147.307 81.414l5.689-26.596h.137l5.689 26.596h9.872l10.486-36.467h-9.871l-5.688 26.184h-.138L158 44.947h-9.665l-5.141 26.184h-.137l-5.689-26.184h-10.214l10.282 36.467zM194.938 77.458h15.379c4.971 0 9-4.029 9-9s-4.029-9-9-9h-15.379c-4.971 0-9 4.029-9 9s4.029 9 9 9zM211.529 93.354h-74.346c-4.971 0-9 4.029-9 9s4.029 9 9 9h74.346c4.971 0 9-4.029 9-9s-4.029-9-9-9zM211.529 127.294h-74.346c-4.971 0-9 4.029-9 9s4.029 9 9 9h74.346c4.971 0 9-4.029 9-9s-4.029-9-9-9z" />
</svg>