<svg xmlns="http://www.w3.org/2000/svg" viewBox="0 0 512 512"><circle cx="376" cy="400" r="112" fill="#faa85f"/><path fill="#fff" d="M392 400v-64h-32v64h-32l48 64 48-64z"/><path d="M256.352 480H56V32h192v128h128v96c11.008 0 21.696 1.36 32 3.712V137.376L270.624 0H24v512h261.696c-11.312-9.136-21.232-19.904-29.344-32zM280 54.624L353.376 128H280V54.624z" fill="#00384e"/><path d="M232 400c0-68.384 47.968-125.68 112-140.288V160h-96V64H88v384h152.4c-5.344-15.04-8.4-31.152-8.4-48z" fill="#72c6ef"/><g fill="#00384d"><path d="M136 240h160v32H136zM268.976 304H136v32h111.2a143.777 143.777 0 0121.776-32zM136 368v32h96c0-11.008 1.36-21.696 3.712-32H136z"/></g></svg>