<svg xmlns="http://www.w3.org/2000/svg" viewBox="0 0 512 512"><path d="M467.162 512H44.837c-7.586 0-13.734-6.149-13.734-13.734V13.734C31.102 6.149 37.251 0 44.837 0h422.326c7.584 0 13.734 6.149 13.734 13.734v252.338c0 7.586-6.15 13.734-13.734 13.734s-13.734-6.149-13.734-13.734V27.469H58.571v457.062h394.857V349.393c0-7.586 6.15-13.734 13.734-13.734s13.734 6.149 13.734 13.734v148.872c0 7.586-6.149 13.735-13.734 13.735z" fill="#507c5c"/><path fill="#cff09e" d="M214.724 81.009h192.283v54.481H214.724z"/><path d="M407.013 149.223H214.73c-7.586 0-13.734-6.149-13.734-13.734v-54.48c0-7.586 6.149-13.734 13.734-13.734h192.283c7.584 0 13.734 6.149 13.734 13.734v54.481c0 7.584-6.15 13.733-13.734 13.733zm-178.549-27.469h164.814v-27.01H228.464v27.01z" fill="#507c5c"/><path fill="#cff09e" d="M214.724 228.762h192.283v54.481H214.724z"/><g fill="#507c5c"><path d="M407.013 296.975H214.73c-7.586 0-13.734-6.149-13.734-13.734V228.76c0-7.586 6.149-13.734 13.734-13.734h192.283c7.584 0 13.734 6.149 13.734 13.734v54.481c0 7.586-6.15 13.734-13.734 13.734zm-178.549-27.468h164.814v-27.012H228.464v27.012zM407.013 444.726H214.73c-7.586 0-13.734-6.149-13.734-13.734 0-7.586 6.149-13.734 13.734-13.734h178.548v-27.012H214.73c-7.586 0-13.734-6.149-13.734-13.734s6.149-13.734 13.734-13.734h192.283c7.584 0 13.734 6.149 13.734 13.734v54.481c0 7.584-6.15 13.733-13.734 13.733zM125.487 90.557a8.18 8.18 0 003.962-1.045v58.31c0 5.128 5.116 8.71 12.439 8.71s12.438-3.582 12.438-8.71V68.8c0-5.457-5.876-8.835-11.32-8.835-1.99 0-3.692.433-5.027 1.268l-16.389 9.933c-3.138 1.883-4.938 5.142-4.938 8.941.001 5.025 3.379 10.45 8.835 10.45zM114.68 304.16h44.231c4.655 0 8.587-5.183 8.587-11.32 0-6.002-3.932-11.071-8.587-11.071h-29.307c1.567-2.781 6.571-6.207 11.437-9.537 11.165-7.642 26.457-18.11 26.457-35.923 0-18.489-16.332-28.466-31.696-28.466-14.944 0-30.827 9.324-30.827 26.602 0 10.588 6.223 12.812 11.445 12.812 8.401 0 12.935-5.065 12.935-9.83 0-1.626 0-6.572 6.572-6.572 6.212 0 6.696 4.649 6.696 6.075 0 6.08-8.588 12.384-16.895 18.481-10.935 8.026-22.243 16.328-22.243 27.988v12.052c-.003 5.606 6.618 8.709 11.195 8.709zM158.71 400.369c4.357-4.274 6.924-11.442 6.924-19.915 0-11.512-5.284-25.236-30.455-25.236-21.466 0-31.074 12.549-31.074 24.987 0 8.103 2.993 10.574 12.81 10.574 7.841 0 11.817-3.307 11.817-9.828 0-1.846 0-3.59 6.447-3.59 4.821 0 6.447 1.564 6.447 6.198 0 7.939-3.064 7.939-6.944 7.939-5.144 0-8.338 3.909-8.338 10.202s3.195 10.202 8.338 10.202c7.036 0 9.182 1.681 9.182 7.193v2.361c0 6.623-1.867 8.436-8.684 8.436-8.311 0-8.311-3.125-8.311-4.46 0-7.642-5.071-9.208-12.685-9.208-6.202 0-11.941 1.191-11.941 9.828 0 12.633 10.113 26.23 32.317 26.23 21.722 0 34.182-11.236 34.182-30.827v-2.361c-.002-8.387-3.449-14.778-10.032-18.725z"/></g></svg>