<svg xmlns="http://www.w3.org/2000/svg" viewBox="0 0 512 512"><path d="M512 16.015v406.666H.239V65.175H0V19.52h.478A12.86 12.86 0 010 16.015C0 7.17 7.171 0 16.015 0h479.97C504.829 0 512 7.17 512 16.015z" fill="#44494f"/><path fill="#fff" d="M9.269 62.678h493.462V412.07H9.269z"/><path opacity=".06" fill="#0d0d0d" d="M9.269 62.678h493.462v20.763H9.269z"/><path fill="#f7bfa1" d="M462.397 115.971v62.048h-41.65l-41.409 38.091-67.898-62.445-38.044 34.982H237.87v-72.676z"/><path fill="#f29b84" d="M462.397 178.019v69.17H237.87v-58.542h35.526l38.044-34.982 67.898 62.445 41.409-38.091z"/><path fill="#f9f8c9" d="M462.397 174.365v7.972h-39.642l-43.332 39.738-68.097-62.444-36.36 33.334H237.87v-7.971h33.49l39.966-36.63 68.097 62.444 39.726-36.443z"/><ellipse cx="312.427" cy="156.878" rx="7.995" ry="7.807" fill="#fefdf0"/><ellipse cx="420.747" cy="178.019" rx="7.995" ry="7.807" fill="#fefdf0"/><ellipse cx="379.251" cy="215.814" rx="7.995" ry="7.807" fill="#fefdf0"/><ellipse cx="274.243" cy="186.484" rx="7.995" ry="7.807" fill="#fefdf0"/><g><ellipse cx="125.815" cy="32.559" rx="12.141" ry="12.923" fill="#8bc66f"/><ellipse cx="81.65" cy="32.559" rx="12.141" ry="12.923" fill="#f4db6d"/><ellipse cx="37.485" cy="32.559" rx="12.141" ry="12.923" fill="#e06276"/></g><g fill="#899c99"><path opacity=".5" d="M53.699 305.567h76.66v64.006h-76.66z"/><g opacity=".5"><path d="M142.537 356.288h51.228v8.816h-51.228zM142.537 308.167h105.815v9.216H142.537zM142.537 332.127h105.815v9.216H142.537z"/></g><g><path opacity=".5" d="M271.77 305.567h76.66v64.006h-76.66z"/><g opacity=".5"><path d="M360.607 356.288h51.228v8.816h-51.228zM360.607 308.167h105.815v9.216H360.607zM360.607 332.127h105.815v9.216H360.607z"/></g></g></g><g><path d="M206.196 171.055c-3.329-14.232-10.237-27.39-19.96-38.229-9.73-10.846-22.283-19.363-36.956-24.252a86.203 86.203 0 00-45.377-2.587 86.987 86.987 0 00-41.264 21.503l63.837 64.49 78.9 21.573c3.934-14.39 3.996-28.925.82-42.498z" fill="#f29640"/><path d="M205.375 213.554c3.935-14.391 3.996-28.926.821-42.499l-79.721 20.927 57.984 58.577c9.639-10.07 16.981-22.614 20.916-37.005z" fill="#e8ea76"/><path d="M98.992 274.254c-13.645-3.731-25.617-10.54-35.395-19.455-.11-.085-.206-.178-.303-.271a86.955 86.955 0 01-24.59-39.512c-4.359-14.87-4.799-31.097-.411-47.145 4.388-16.048 13.023-29.793 24.341-40.377l63.841 64.488-22.805 83.408a91.131 91.131 0 01-4.678-1.136z" fill="#6992a1"/><path d="M103.67 275.389c15.116 3.257 30.262 2.31 44.152-2.073.123-.044.256-.085.379-.129a86.975 86.975 0 0036.26-22.631l-57.682-58.27-.067-.24-.09.086-.147-.151-.113.413L63.597 254.8c9.778 8.914 21.75 15.724 35.395 19.455 1.558.425 3.119.796 4.678 1.134z" fill="#7bcad4"/></g><g><path fill="#82ccd3" d="M429.489 256.97h32.908v20.313h-32.908z"/><path fill="#e4e78e" d="M387.246 256.97h32.908v20.313h-32.908z"/><path fill="#e5a871" d="M345.004 256.97h32.908v20.313h-32.908z"/><path fill="#6992a1" d="M302.761 256.97h32.908v20.313h-32.908z"/></g></svg>